<svg xmlns="http://www.w3.org/2000/svg" width="475" height="389" viewBox="0 0 475 389">
  <path d="M342.67 313.22 L341.56 314.11 L340.44 316.67 L339.00 320.67 L337.56 325.67 L336.00 330.33 L335.00 334.11 L334.22 336.78 L333.78 339.22 L333.22 341.33 L332.78 343.67 L332.22 345.78 L331.78 349.44 L331.44 354.00 L331.44 360.00 L331.78 364.67 L332.44 368.22 L333.33 369.67 L334.11 370.00 L334.44 367.78 L334.44 363.78 L334.44 357.22 L334.78 351.11 L335.22 345.11 L335.89 341.22 L336.56 337.89 L337.56 335.22 L338.56 331.89 L339.89 327.89 L341.11 323.44 L342.33 319.67 L343.11 316.78 L343.56 314.89 L343.33 313.56 Z M363.56 310.33 L362.44 311.33 L362.89 313.00 L365.00 315.33 L368.00 318.67 L370.56 322.22 L372.00 325.22 L372.89 327.56 L373.56 329.89 L374.44 332.56 L375.11 335.44 L375.78 338.11 L376.22 341.56 L376.56 345.22 L376.56 349.56 L376.11 352.89 L375.44 356.00 L374.78 358.44 L374.78 360.78 L375.56 361.78 L376.89 361.33 L378.22 359.56 L379.11 356.33 L379.56 352.11 L379.56 346.56 L379.22 342.00 L378.78 338.22 L378.22 336.11 L377.78 334.11 L377.11 332.11 L376.44 329.44 L375.33 326.11 L374.22 322.56 L372.44 318.67 L370.44 315.22 L367.89 312.11 L365.56 310.56 Z M363.44 296.56 L362.22 294.33 L360.56 293.11 L358.89 292.67 L357.11 293.00 L354.89 293.56 L352.67 294.56 L350.89 295.56 L349.78 296.56 L349.00 296.78 L348.33 296.22 L347.67 295.33 L347.00 295.22 L346.33 296.11 L345.78 297.67 L345.78 299.44 L347.22 301.22 L350.33 302.56 L354.56 303.00 L358.56 302.44 L361.67 301.11 L363.33 299.00 Z M355.11 296.67 L355.67 296.00 L357.22 295.56 L358.67 295.89 L358.78 296.56 L357.56 297.11 L356.00 297.22 Z M300.56 284.11 L300.89 285.33 L302.44 286.89 L304.56 288.00 L307.11 289.00 L310.22 289.89 L314.56 291.44 L319.78 293.11 L325.44 294.89 L330.56 295.89 L334.33 295.89 L336.67 295.22 L336.67 294.33 L334.78 293.89 L331.33 293.56 L328.44 293.22 L326.11 292.78 L324.22 292.11 L321.89 291.44 L318.33 290.00 L313.78 288.22 L308.44 285.89 L304.33 284.33 L301.56 283.56 Z M288.67 293.00 L285.44 291.22 L281.56 289.56 L277.67 287.33 L274.56 285.44 L271.56 284.22 L268.56 284.33 L265.56 285.67 L263.56 287.33 L262.33 289.11 L261.78 291.11 L261.44 293.56 L261.56 296.78 L262.11 299.89 L263.22 303.22 L264.33 306.22 L265.22 309.44 L265.11 312.56 L264.44 315.44 L263.33 317.89 L262.44 319.89 L261.78 322.11 L261.22 324.56 L260.33 327.00 L258.78 328.56 L256.67 329.22 L254.44 329.22 L253.22 327.22 L253.78 322.67 L256.11 316.00 L258.56 310.44 L259.33 307.67 L258.33 307.89 L256.11 310.11 L253.89 313.22 L251.89 316.33 L250.33 319.33 L248.89 322.00 L247.11 324.44 L245.22 325.56 L243.33 325.78 L241.78 325.22 L240.22 324.78 L238.67 324.44 L236.67 324.89 L234.22 326.67 L231.56 330.11 L229.56 334.44 L229.00 338.67 L229.89 341.78 L232.00 344.11 L234.56 345.67 L237.22 347.11 L239.56 348.00 L241.56 348.78 L243.67 349.22 L245.78 349.56 L248.00 349.67 L249.56 349.44 L250.33 349.00 L249.56 348.22 L246.56 347.00 L241.78 345.22 L236.67 342.44 L233.56 339.33 L233.00 335.67 L234.56 332.56 L237.00 330.00 L239.33 328.89 L241.56 328.89 L243.78 329.78 L246.44 331.00 L249.00 332.22 L251.44 333.11 L253.44 333.56 L255.44 333.78 L257.00 334.33 L258.11 335.67 L258.22 337.67 L257.33 339.78 L255.78 341.78 L254.33 343.56 L254.00 345.22 L255.22 345.78 L257.67 345.00 L260.33 342.33 L262.00 339.11 L262.56 335.44 L262.44 332.56 L262.44 329.67 L262.78 327.33 L263.22 324.89 L264.22 322.00 L265.56 318.22 L267.67 313.67 L269.78 310.44 L272.33 308.89 L275.33 308.89 L278.89 308.44 L282.56 307.33 L285.56 305.89 L288.11 304.56 L290.11 302.89 L291.44 300.44 L291.67 297.56 L290.67 294.89 Z M266.00 292.78 L268.11 289.00 L270.56 287.56 L273.44 288.67 L276.56 290.67 L280.56 293.22 L284.44 295.33 L287.22 297.44 L288.11 299.11 L287.33 300.67 L285.33 302.11 L282.67 303.56 L279.78 304.78 L277.22 305.22 L275.00 305.44 L273.00 305.56 L270.89 305.89 L268.67 305.22 L266.56 302.67 L265.56 298.11 Z M345.44 270.89 L345.33 273.67 L346.22 276.67 L347.33 279.00 L348.56 280.78 L349.67 282.11 L351.33 282.89 L353.33 282.67 L355.44 281.44 L357.11 279.89 L358.11 277.78 L358.56 275.44 L357.89 272.78 L356.22 270.89 L353.44 269.78 L350.89 269.22 L348.44 268.89 L346.67 269.22 Z M348.89 274.89 L349.11 273.11 L350.67 272.44 L352.78 272.78 L354.89 273.44 L355.89 274.67 L355.89 276.33 L354.78 278.22 L353.44 279.44 L351.67 279.22 L350.00 277.44 Z M388.44 264.11 L386.89 264.11 L385.22 265.44 L384.11 267.89 L383.89 270.78 L384.56 273.00 L385.78 273.44 L387.33 271.78 L388.67 268.67 L389.11 265.78 Z M369.78 247.22 L369.44 248.44 L370.78 249.67 L373.67 250.56 L377.11 251.44 L381.00 252.11 L384.56 252.78 L387.89 252.78 L389.67 252.22 L390.00 250.89 L388.89 249.67 L387.33 248.78 L385.33 248.00 L382.89 247.22 L379.89 246.33 L377.00 245.89 L374.11 245.78 L371.67 246.22 Z M269.78 217.56 L267.44 219.11 L265.44 221.22 L263.33 223.89 L261.00 227.33 L258.33 231.00 L255.89 234.56 L253.89 237.44 L252.44 239.89 L251.44 242.44 L250.89 245.33 L251.56 248.44 L253.44 250.56 L256.33 251.44 L258.89 251.11 L261.33 250.22 L263.67 249.00 L266.22 248.00 L268.22 247.78 L269.56 248.44 L270.33 250.11 L271.33 252.56 L272.56 255.78 L274.11 259.00 L275.44 261.89 L277.11 264.56 L278.89 267.11 L280.89 269.11 L281.78 269.33 L281.00 266.89 L278.67 262.33 L276.00 257.11 L274.22 253.11 L273.11 250.11 L272.11 247.78 L270.56 245.78 L268.67 244.78 L266.56 244.89 L264.22 245.78 L261.67 247.00 L259.33 248.22 L257.33 249.11 L255.67 249.44 L254.11 249.00 L253.33 247.11 L253.78 244.11 L255.67 239.89 L258.33 235.78 L261.33 231.33 L264.44 227.22 L267.33 223.44 L270.00 221.11 L271.89 220.22 L273.11 220.22 L273.56 219.78 L273.56 218.78 L273.11 217.44 L271.78 217.00 Z M359.44 215.00 L358.89 216.22 L358.67 220.00 L358.44 226.44 L357.78 232.56 L356.78 238.56 L355.44 243.00 L354.22 246.67 L352.56 249.56 L350.89 252.00 L348.78 254.44 L346.67 256.33 L344.11 257.67 L341.56 257.89 L338.67 256.33 L336.00 253.56 L333.11 250.22 L330.89 248.33 L328.89 248.11 L327.00 249.89 L324.78 252.44 L322.44 255.11 L320.67 257.00 L319.33 258.33 L317.89 259.67 L316.11 261.11 L313.56 263.11 L310.44 265.22 L306.56 267.67 L302.78 269.67 L300.11 271.22 L299.44 272.22 L300.89 272.67 L304.11 272.00 L307.89 270.44 L311.67 268.11 L314.89 265.89 L318.67 262.89 L322.56 259.67 L326.44 256.00 L329.00 253.44 L331.11 252.44 L332.78 253.44 L334.78 255.89 L336.22 258.44 L337.78 260.44 L339.22 261.33 L341.22 261.56 L343.11 261.22 L345.78 259.89 L349.00 257.22 L352.89 252.89 L355.89 248.44 L357.78 244.44 L358.67 241.78 L359.22 239.22 L359.78 236.89 L360.22 233.78 L360.78 230.78 L361.22 227.33 L361.56 224.56 L361.56 221.67 L361.11 219.11 L360.33 216.56 Z M386.44 213.11 L386.00 214.33 L386.78 216.11 L389.33 218.89 L393.00 222.11 L397.78 226.22 L401.56 229.78 L403.89 233.00 L404.44 236.56 L404.44 240.56 L404.44 245.22 L404.89 248.78 L405.89 251.56 L407.56 252.78 L409.67 253.33 L411.44 253.44 L412.22 254.11 L411.78 255.22 L411.00 256.67 L411.00 257.44 L412.22 257.56 L414.67 256.67 L417.67 255.67 L421.33 255.22 L425.22 256.56 L428.89 259.56 L431.33 263.33 L432.00 266.67 L431.11 269.22 L428.89 271.11 L426.11 272.11 L423.00 272.22 L420.44 271.89 L417.89 272.56 L415.56 274.44 L412.89 277.22 L411.00 279.67 L410.11 281.78 L411.44 283.56 L414.56 284.89 L418.56 285.00 L421.56 283.89 L423.33 282.11 L424.33 280.67 L425.11 279.78 L425.22 279.11 L425.00 278.22 L425.00 277.00 L426.00 276.00 L427.56 276.11 L429.33 277.56 L431.00 279.78 L432.44 281.22 L433.11 280.89 L432.89 278.89 L432.22 276.11 L432.22 273.44 L433.00 270.78 L434.00 268.00 L434.44 265.22 L434.22 262.89 L433.56 260.89 L432.44 258.78 L430.78 256.33 L428.11 254.00 L424.22 252.11 L419.44 250.89 L414.89 250.11 L411.56 250.00 L409.44 250.22 L408.22 249.56 L407.33 247.56 L406.89 244.33 L406.67 241.22 L406.89 238.33 L407.22 235.56 L407.56 233.11 L407.33 231.11 L406.44 229.78 L403.78 227.56 L399.89 224.11 L394.89 219.22 L391.00 215.33 L388.00 213.11 Z M417.78 276.44 L419.22 276.67 L420.11 278.44 L419.78 280.67 L418.22 282.00 L416.22 281.78 L415.44 280.11 L416.22 277.89 Z M433.56 207.89 L433.11 208.78 L435.00 211.33 L438.22 214.89 L442.67 219.89 L446.67 225.22 L450.00 230.22 L452.00 233.89 L453.11 236.89 L453.78 239.56 L454.11 242.33 L454.33 244.89 L454.11 247.33 L453.78 249.89 L453.22 252.22 L452.56 254.00 L451.44 254.11 L449.89 252.67 L448.22 250.00 L446.78 247.33 L445.67 245.00 L444.44 243.22 L442.89 242.00 L441.22 241.67 L439.67 242.22 L438.56 243.44 L437.44 245.22 L436.56 247.44 L435.56 249.89 L435.00 252.11 L434.78 253.56 L435.56 253.33 L437.11 251.33 L439.44 248.33 L441.56 246.44 L443.56 247.11 L445.33 250.00 L447.33 253.89 L449.00 256.89 L450.33 258.78 L451.67 259.11 L453.22 258.11 L454.89 255.89 L456.00 252.11 L456.56 247.67 L456.56 242.56 L455.78 237.89 L454.22 233.22 L451.89 228.56 L449.56 224.44 L447.56 221.11 L445.56 218.44 L443.67 215.89 L441.56 213.44 L439.78 211.44 L437.67 209.67 L435.33 208.22 Z M450.78 184.78 L449.33 183.56 L446.78 182.56 L443.89 181.56 L441.33 180.22 L439.67 178.22 L438.78 175.56 L438.11 173.11 L437.11 171.11 L435.44 170.22 L433.56 171.00 L432.33 173.78 L431.56 178.22 L430.78 182.56 L428.33 186.56 L425.33 189.67 L422.33 192.67 L421.33 194.33 L422.00 194.67 L424.22 193.33 L426.78 191.67 L429.56 189.67 L432.22 188.00 L435.00 186.56 L437.44 186.33 L439.67 187.00 L441.78 187.89 L444.11 188.11 L446.67 187.56 L449.11 186.78 L450.67 185.78 Z M434.67 174.67 L435.33 175.67 L435.33 177.11 L434.67 177.67 L434.00 176.67 L434.00 175.22 Z M291.56 191.78 L292.33 191.78 L294.56 190.00 L298.22 186.89 L303.11 183.44 L308.22 180.33 L313.33 177.67 L317.33 175.89 L320.78 174.44 L323.78 173.56 L326.67 172.56 L329.56 171.89 L332.11 171.22 L335.56 170.78 L339.22 170.44 L343.78 170.44 L347.44 170.78 L351.22 171.22 L354.22 171.78 L357.78 172.22 L360.78 172.78 L363.89 173.22 L366.67 174.00 L369.78 174.89 L372.78 176.11 L375.33 177.00 L377.22 177.78 L378.78 178.22 L380.22 178.78 L382.11 179.33 L385.00 180.44 L389.11 182.11 L393.89 184.44 L398.00 186.56 L401.11 187.89 L402.67 187.89 L402.56 186.78 L400.56 184.89 L397.33 182.89 L393.89 181.00 L390.56 179.56 L386.67 177.89 L381.89 176.22 L376.56 174.22 L371.89 172.78 L368.33 171.56 L365.44 170.89 L362.89 170.22 L359.89 169.78 L357.11 169.22 L353.33 168.78 L349.44 168.22 L345.00 167.89 L341.33 167.67 L337.67 168.00 L333.56 168.56 L328.67 169.78 L323.44 171.11 L318.67 172.89 L314.33 174.56 L310.11 176.78 L305.33 179.33 L300.78 182.11 L297.00 184.33 L294.67 186.22 L293.00 188.11 L292.00 190.22 Z M259.11 116.44 L259.33 117.33 L260.89 118.11 L263.00 118.56 L265.11 118.56 L265.89 118.11 L265.33 117.44 L263.67 116.56 L261.67 116.00 L260.00 115.89 Z M50.22 110.56 L49.33 111.22 L50.11 111.56 L51.67 111.56 L53.56 111.44 L55.67 111.11 L59.00 110.78 L62.44 110.22 L66.33 109.78 L69.33 109.44 L71.89 109.78 L73.00 111.00 L73.22 113.11 L72.33 115.89 L71.22 118.89 L69.67 122.44 L68.33 126.44 L67.22 131.22 L67.22 135.78 L68.67 139.33 L70.89 141.22 L72.67 141.56 L72.56 140.78 L71.33 138.56 L70.44 135.11 L70.78 130.67 L72.11 126.44 L73.33 122.89 L74.67 119.67 L75.78 116.44 L76.89 113.22 L77.44 110.78 L77.89 109.22 L78.56 108.67 L80.00 108.56 L81.67 108.56 L81.67 108.11 L79.11 107.67 L73.56 107.44 L68.11 107.78 L63.00 108.22 L59.78 108.78 L56.22 109.22 L53.11 109.89 Z M196.89 107.56 L196.33 108.22 L198.11 108.44 L201.33 108.44 L204.89 108.89 L206.67 110.11 L206.33 112.44 L204.44 115.44 L201.67 119.33 L199.22 123.44 L197.44 127.33 L197.22 130.22 L198.11 132.11 L199.89 133.11 L201.89 133.56 L204.11 133.56 L206.11 133.22 L208.11 132.56 L209.44 131.67 L210.00 130.89 L208.67 130.56 L206.11 130.22 L203.11 129.11 L201.44 126.89 L201.67 124.00 L203.00 121.33 L204.89 119.00 L206.22 117.33 L207.56 115.89 L208.44 114.67 L209.67 113.00 L210.56 111.00 L210.22 108.78 L207.89 107.22 L203.67 106.56 L199.67 106.89 Z M311.89 113.22 L312.67 114.00 L315.11 113.11 L319.00 110.56 L323.11 109.67 L327.44 110.78 L332.00 114.33 L335.89 117.22 L339.11 119.44 L341.89 120.44 L345.00 121.22 L347.89 121.33 L350.11 120.89 L351.56 119.89 L352.67 118.44 L353.22 116.78 L352.78 115.67 L350.89 115.67 L348.11 116.56 L345.11 117.22 L342.56 117.22 L339.22 115.56 L335.11 112.67 L330.11 108.67 L326.33 105.89 L323.67 104.44 L321.78 104.78 L319.56 105.78 L317.22 107.33 L314.89 109.11 L313.11 111.11 Z M131.22 101.56 L131.67 102.22 L133.67 102.44 L136.33 102.22 L139.67 101.78 L142.44 101.44 L144.89 101.67 L146.33 102.44 L147.11 104.56 L147.22 107.56 L146.56 111.22 L145.33 113.56 L143.22 114.56 L140.78 114.44 L138.00 114.67 L137.22 115.33 L138.67 116.33 L142.44 118.33 L145.44 121.44 L147.22 126.00 L147.78 129.89 L148.11 133.00 L148.33 134.89 L148.56 136.67 L149.22 138.11 L150.33 137.89 L151.22 135.78 L151.56 131.33 L151.22 127.00 L150.78 122.89 L150.44 120.33 L150.44 117.78 L150.78 115.44 L151.11 112.56 L151.44 110.11 L151.56 107.78 L151.67 105.67 L151.22 103.33 L149.89 101.33 L147.67 100.00 L144.22 99.56 L140.33 99.78 L135.89 100.22 L132.78 100.89 Z M271.33 93.22 L270.00 93.33 L268.78 94.22 L267.00 95.33 L265.00 96.22 L264.00 97.00 L264.78 97.78 L266.89 99.00 L268.89 100.78 L270.11 103.22 L270.78 105.67 L271.22 108.56 L271.78 111.33 L272.22 114.56 L272.78 117.11 L273.22 119.56 L273.78 121.44 L274.22 123.67 L274.78 125.78 L275.22 128.56 L275.56 131.33 L275.78 134.44 L276.33 136.67 L277.56 138.11 L279.11 137.67 L280.22 135.89 L280.56 132.67 L280.11 129.33 L279.44 125.67 L278.56 122.33 L277.89 119.00 L277.22 116.33 L276.78 113.44 L276.22 110.67 L275.78 107.44 L275.22 104.89 L274.89 102.56 L275.22 101.00 L276.44 99.56 L277.67 98.56 L277.56 97.22 L275.78 95.78 L273.33 94.11 Z M100.89 93.11 L100.11 93.56 L102.00 95.11 L105.33 97.44 L108.78 100.33 L111.33 103.33 L113.33 106.56 L114.22 110.33 L113.78 114.11 L111.78 117.33 L109.44 119.22 L107.33 120.22 L105.78 120.78 L104.22 121.22 L102.00 122.11 L99.56 123.22 L98.11 124.22 L99.44 124.22 L102.67 123.44 L104.78 123.67 L104.44 125.44 L101.67 128.78 L99.33 131.56 L97.89 133.56 L98.11 134.33 L99.00 134.44 L100.89 133.22 L103.22 131.11 L106.00 128.33 L108.11 126.33 L109.56 124.89 L110.89 123.56 L112.67 121.78 L115.11 119.89 L117.00 119.00 L118.22 119.11 L118.56 120.44 L119.00 122.67 L119.56 126.67 L120.22 131.56 L120.44 136.89 L120.00 141.22 L118.89 145.11 L117.11 148.33 L115.22 150.56 L113.56 151.67 L112.89 152.11 L113.22 152.67 L114.56 153.11 L116.33 152.89 L118.22 151.67 L120.22 148.89 L122.00 144.67 L123.56 139.67 L124.33 135.33 L124.56 132.56 L124.44 130.78 L124.11 129.33 L123.78 127.44 L123.22 125.56 L122.89 123.56 L122.56 121.89 L122.44 120.11 L122.11 118.44 L121.78 116.56 L121.56 114.78 L121.67 112.89 L121.78 111.22 L121.11 109.56 L119.67 107.89 L117.67 105.89 L116.00 103.89 L114.33 101.89 L112.89 100.00 L111.22 98.11 L109.56 96.33 L107.00 94.78 L103.78 93.56 Z M200.78 88.44 L200.00 89.00 L200.11 90.78 L201.11 93.33 L202.33 95.89 L203.78 98.11 L205.33 99.67 L206.56 100.22 L207.22 99.67 L206.89 98.11 L206.11 95.89 L204.89 93.44 L203.67 91.11 L202.22 89.33 Z M231.89 80.22 L229.11 81.00 L226.89 82.78 L225.56 84.78 L224.78 86.67 L224.22 88.22 L223.78 89.78 L223.22 91.22 L222.78 92.89 L222.22 94.56 L221.78 96.89 L221.22 99.44 L220.78 103.67 L220.44 108.44 L220.44 114.22 L220.78 118.33 L220.89 121.56 L220.56 123.33 L219.33 125.11 L218.00 126.44 L217.00 127.67 L217.33 128.11 L219.00 127.89 L221.56 127.11 L223.67 126.78 L224.67 127.11 L224.33 128.00 L223.22 129.33 L221.67 131.11 L220.44 133.22 L220.22 134.78 L221.22 135.00 L223.33 133.44 L225.89 130.78 L228.89 127.67 L231.44 125.11 L233.89 122.67 L235.67 120.78 L237.44 118.89 L238.89 117.67 L240.33 116.78 L241.56 117.33 L242.56 119.11 L243.22 122.33 L243.56 125.33 L243.67 128.11 L243.67 130.11 L243.67 132.00 L243.56 134.00 L243.22 136.22 L242.56 138.56 L242.11 140.33 L242.44 141.33 L243.89 141.00 L245.67 139.33 L247.00 136.44 L247.56 133.56 L247.56 130.89 L247.44 129.00 L247.33 127.33 L247.44 126.11 L247.44 125.00 L247.56 124.00 L247.33 122.67 L247.22 121.00 L246.78 119.00 L246.56 117.11 L246.11 115.33 L245.89 113.67 L245.56 112.22 L245.44 110.78 L244.78 108.56 L243.56 105.22 L241.22 101.11 L237.78 97.89 L233.44 95.78 L229.56 94.00 L227.67 91.44 L228.00 87.89 L230.00 85.00 L232.67 83.11 L235.22 82.33 L236.00 81.44 L234.78 80.56 Z M233.22 97.78 L235.33 99.11 L237.44 101.44 L239.11 104.11 L240.11 106.56 L240.00 109.11 L238.33 112.11 L235.11 115.56 L231.44 118.33 L228.33 119.89 L226.22 120.00 L225.22 119.11 L225.44 117.89 L227.00 116.56 L229.22 115.56 L231.44 114.56 L232.89 113.78 L233.11 113.00 L232.22 112.56 L230.44 112.44 L228.56 112.78 L226.67 113.11 L225.33 112.67 L224.56 111.11 L225.22 108.78 L227.11 107.11 L230.00 106.22 L231.89 105.78 L232.44 105.00 L231.11 104.22 L229.11 103.67 L227.11 102.78 L226.33 101.22 L227.00 99.33 L228.44 98.00 L230.00 97.44 L231.44 97.33 Z M66.89 69.56 L66.78 71.56 L68.00 75.44 L69.78 79.67 L71.67 83.67 L73.11 86.44 L74.11 89.44 L74.78 92.44 L75.44 95.67 L76.44 97.33 L77.44 97.56 L78.22 96.67 L78.44 95.56 L78.44 93.89 L78.11 91.78 L77.78 89.22 L77.00 86.67 L76.11 83.89 L74.89 81.00 L73.78 78.33 L72.67 76.00 L71.67 74.00 L70.78 72.22 L69.56 70.56 L68.11 69.44 Z M102.67 63.00 L101.33 62.78 L100.78 63.11 L101.00 63.78 L101.11 65.22 L100.56 67.44 L99.44 70.11 L98.78 72.56 L98.00 75.78 L96.67 80.11 L94.33 85.44 L92.00 89.56 L90.11 92.33 L89.33 94.67 L89.56 97.67 L91.00 101.33 L92.33 104.56 L93.56 107.22 L94.11 110.00 L94.56 113.11 L94.67 116.78 L94.78 119.44 L95.33 121.00 L96.22 120.89 L97.33 119.89 L98.33 118.56 L100.00 117.22 L102.22 116.00 L104.33 114.67 L104.78 113.89 L103.44 113.78 L101.33 114.22 L99.56 114.11 L98.44 113.22 L97.78 111.56 L97.67 109.78 L98.44 108.11 L100.22 107.11 L102.33 107.00 L104.22 107.44 L105.44 107.67 L105.89 107.00 L104.89 105.89 L102.00 104.00 L98.11 101.56 L95.11 97.78 L94.44 93.89 L95.67 90.00 L97.56 86.56 L99.22 83.00 L100.78 79.56 L101.78 76.89 L102.44 75.11 L102.56 73.89 L102.67 72.56 L102.89 70.67 L103.33 68.44 L103.89 66.00 L103.67 64.11 Z" fill="#6589a8" fill-rule="evenodd"/>
</svg>
